<svg width="66" height="66" viewBox="0 0 66 66" fill="none" xmlns="http://www.w3.org/2000/svg">
<circle cx="33" cy="33" r="33" fill="#F5F5F5"/>
<path d="M32.5 18C29.7786 18 27.4609 19.5645 26.6081 21.75H24.1667C21.8685 21.75 20 23.4316 20 25.5V44.25C20 46.3184 21.8685 48 24.1667 48H40.8333C43.1315 48 45 46.3184 45 44.25V25.5C45 23.4316 43.1315 21.75 40.8333 21.75H38.3919C37.5391 19.5645 35.2214 18 32.5 18ZM32.5 21.75C33.0525 21.75 33.5824 21.9475 33.9731 22.2992C34.3638 22.6508 34.5833 23.1277 34.5833 23.625C34.5833 24.1223 34.3638 24.5992 33.9731 24.9508C33.5824 25.3025 33.0525 25.5 32.5 25.5C31.9475 25.5 31.4176 25.3025 31.0269 24.9508C30.6362 24.5992 30.4167 24.1223 30.4167 23.625C30.4167 23.1277 30.6362 22.6508 31.0269 22.2992C31.4176 21.9475 31.9475 21.75 32.5 21.75ZM28.3333 33C28.3333 32.0054 28.7723 31.0516 29.5537 30.3483C30.3351 29.6451 31.3949 29.25 32.5 29.25C33.6051 29.25 34.6649 29.6451 35.4463 30.3483C36.2277 31.0516 36.6667 32.0054 36.6667 33C36.6667 33.9946 36.2277 34.9484 35.4463 35.6516C34.6649 36.3549 33.6051 36.75 32.5 36.75C31.3949 36.75 30.3351 36.3549 29.5537 35.6516C28.7723 34.9484 28.3333 33.9946 28.3333 33ZM25.2083 43.3125C25.2083 40.7227 27.5391 38.625 30.4167 38.625H34.5833C37.4609 38.625 39.7917 40.7227 39.7917 43.3125C39.7917 43.8281 39.3229 44.25 38.75 44.25H26.25C25.6771 44.25 25.2083 43.8281 25.2083 43.3125Z" fill="#3D7CF3"/>
</svg>
