<svg width="102" height="38" viewBox="0 0 102 38" fill="none" xmlns="http://www.w3.org/2000/svg">
<path d="M0.854 29V0.299998H6.184V24.49H21.19V29H0.854ZM34.5458 29.287C32.3044 29.287 30.3091 28.8087 28.5598 27.852C26.8104 26.868 25.4301 25.5287 24.4188 23.834C23.4074 22.1393 22.9018 20.2123 22.9018 18.053C22.9018 15.8663 23.4074 13.9393 24.4188 12.272C25.4301 10.5773 26.8104 9.25167 28.5598 8.295C30.3091 7.33833 32.3044 6.86 34.5458 6.86C36.8144 6.86 38.8234 7.33833 40.5728 8.295C42.3494 9.25167 43.7298 10.5637 44.7138 12.231C45.7251 13.8983 46.2308 15.839 46.2308 18.053C46.2308 20.2123 45.7251 22.1393 44.7138 23.834C43.7298 25.5287 42.3494 26.868 40.5728 27.852C38.8234 28.8087 36.8144 29.287 34.5458 29.287ZM34.5458 24.9C35.8031 24.9 36.9238 24.6267 37.9078 24.08C38.8918 23.5333 39.6571 22.7407 40.2038 21.702C40.7778 20.6633 41.0648 19.447 41.0648 18.053C41.0648 16.6317 40.7778 15.4153 40.2038 14.404C39.6571 13.3653 38.8918 12.5727 37.9078 12.026C36.9238 11.4793 35.8168 11.206 34.5868 11.206C33.3294 11.206 32.2088 11.4793 31.2248 12.026C30.2681 12.5727 29.5028 13.3653 28.9288 14.404C28.3548 15.4153 28.0678 16.6317 28.0678 18.053C28.0678 19.447 28.3548 20.6633 28.9288 21.702C29.5028 22.7407 30.2681 23.5333 31.2248 24.08C32.2088 24.6267 33.3158 24.9 34.5458 24.9ZM61.0535 37.241C59.0309 37.241 57.0492 36.9677 55.1085 36.421C53.1952 35.9017 51.6235 35.1363 50.3935 34.125L52.6895 30.271C53.6462 31.0637 54.8489 31.6923 56.2975 32.157C57.7735 32.649 59.2632 32.895 60.7665 32.895C63.1719 32.895 64.9349 32.3347 66.0555 31.214C67.1762 30.1207 67.7365 28.467 67.7365 26.253V22.358L68.1465 17.397L67.9825 12.436V7.106H72.8615V25.679C72.8615 29.6423 71.8502 32.5533 69.8275 34.412C67.8049 36.298 64.8802 37.241 61.0535 37.241ZM60.3975 28.016C58.3202 28.016 56.4342 27.5787 54.7395 26.704C53.0722 25.802 51.7465 24.5583 50.7625 22.973C49.8059 21.3877 49.3275 19.529 49.3275 17.397C49.3275 15.2923 49.8059 13.4473 50.7625 11.862C51.7465 10.2767 53.0722 9.04667 54.7395 8.172C56.4342 7.29733 58.3202 6.86 60.3975 6.86C62.2562 6.86 63.9235 7.229 65.3995 7.967C66.8755 8.705 68.0509 9.853 68.9255 11.411C69.8275 12.969 70.2785 14.9643 70.2785 17.397C70.2785 19.8297 69.8275 21.8387 68.9255 23.424C68.0509 24.982 66.8755 26.1437 65.3995 26.909C63.9235 27.647 62.2562 28.016 60.3975 28.016ZM61.1765 23.67C62.4612 23.67 63.6092 23.4103 64.6205 22.891C65.6319 22.3443 66.4109 21.6063 66.9575 20.677C67.5315 19.7203 67.8185 18.627 67.8185 17.397C67.8185 16.167 67.5315 15.0873 66.9575 14.158C66.4109 13.2013 65.6319 12.477 64.6205 11.985C63.6092 11.4657 62.4612 11.206 61.1765 11.206C59.8919 11.206 58.7302 11.4657 57.6915 11.985C56.6802 12.477 55.8875 13.2013 55.3135 14.158C54.7669 15.0873 54.4935 16.167 54.4935 17.397C54.4935 18.627 54.7669 19.7203 55.3135 20.677C55.8875 21.6063 56.6802 22.3443 57.6915 22.891C58.7302 23.4103 59.8919 23.67 61.1765 23.67ZM89.4393 29.287C87.198 29.287 85.2026 28.8087 83.4533 27.852C81.704 26.868 80.3236 25.5287 79.3123 23.834C78.301 22.1393 77.7953 20.2123 77.7953 18.053C77.7953 15.8663 78.301 13.9393 79.3123 12.272C80.3236 10.5773 81.704 9.25167 83.4533 8.295C85.2026 7.33833 87.198 6.86 89.4393 6.86C91.708 6.86 93.717 7.33833 95.4663 8.295C97.243 9.25167 98.6233 10.5637 99.6073 12.231C100.619 13.8983 101.124 15.839 101.124 18.053C101.124 20.2123 100.619 22.1393 99.6073 23.834C98.6233 25.5287 97.243 26.868 95.4663 27.852C93.717 28.8087 91.708 29.287 89.4393 29.287ZM89.4393 24.9C90.6966 24.9 91.8173 24.6267 92.8013 24.08C93.7853 23.5333 94.5506 22.7407 95.0973 21.702C95.6713 20.6633 95.9583 19.447 95.9583 18.053C95.9583 16.6317 95.6713 15.4153 95.0973 14.404C94.5506 13.3653 93.7853 12.5727 92.8013 12.026C91.8173 11.4793 90.7103 11.206 89.4803 11.206C88.223 11.206 87.1023 11.4793 86.1183 12.026C85.1616 12.5727 84.3963 13.3653 83.8223 14.404C83.2483 15.4153 82.9613 16.6317 82.9613 18.053C82.9613 19.447 83.2483 20.6633 83.8223 21.702C84.3963 22.7407 85.1616 23.5333 86.1183 24.08C87.1023 24.6267 88.2093 24.9 89.4393 24.9Z" fill="black"/>
</svg>
