<svg width="66" height="66" viewBox="0 0 66 66" fill="none" xmlns="http://www.w3.org/2000/svg">
<circle cx="33" cy="33" r="33" fill="#F5F5F5"/>
<path d="M36.9643 25.5C36.9643 24.2568 36.4939 23.0645 35.6567 22.1854C34.8195 21.3064 33.684 20.8125 32.5 20.8125C31.316 20.8125 30.1805 21.3064 29.3433 22.1854C28.5061 23.0645 28.0357 24.2568 28.0357 25.5C28.0357 26.7432 28.5061 27.9355 29.3433 28.8146C30.1805 29.6936 31.316 30.1875 32.5 30.1875C33.684 30.1875 34.8195 29.6936 35.6567 28.8146C36.4939 27.9355 36.9643 26.7432 36.9643 25.5ZM25.3571 25.5C25.3571 23.5109 26.1097 21.6032 27.4492 20.1967C28.7888 18.7902 30.6056 18 32.5 18C34.3944 18 36.2112 18.7902 37.5508 20.1967C38.8903 21.6032 39.6429 23.5109 39.6429 25.5C39.6429 27.4891 38.8903 29.3968 37.5508 30.8033C36.2112 32.2098 34.3944 33 32.5 33C30.6056 33 28.7888 32.2098 27.4492 30.8033C26.1097 29.3968 25.3571 27.4891 25.3571 25.5ZM22.7511 45.1875H42.2489C41.7522 41.4785 38.7165 38.625 35.0502 38.625H29.9498C26.2835 38.625 23.2478 41.4785 22.7511 45.1875ZM20 46.2598C20 40.4883 24.4531 35.8125 29.9498 35.8125H35.0502C40.5469 35.8125 45 40.4883 45 46.2598C45 47.2207 44.2578 48 43.3426 48H21.6574C20.7422 48 20 47.2207 20 46.2598Z" fill="#5C93FA"/>
</svg>
