<svg width="82" height="82" viewBox="0 0 82 82" fill="none" xmlns="http://www.w3.org/2000/svg">
<circle cx="41" cy="41" r="41" fill="#5C93FA"/>
<path d="M44.9643 33.5C44.9643 32.2568 44.4939 31.0645 43.6567 30.1854C42.8195 29.3064 41.684 28.8125 40.5 28.8125C39.316 28.8125 38.1805 29.3064 37.3433 30.1854C36.5061 31.0645 36.0357 32.2568 36.0357 33.5C36.0357 34.7432 36.5061 35.9355 37.3433 36.8146C38.1805 37.6936 39.316 38.1875 40.5 38.1875C41.684 38.1875 42.8195 37.6936 43.6567 36.8146C44.4939 35.9355 44.9643 34.7432 44.9643 33.5ZM33.3571 33.5C33.3571 31.5109 34.1097 29.6032 35.4492 28.1967C36.7888 26.7902 38.6056 26 40.5 26C42.3944 26 44.2112 26.7902 45.5508 28.1967C46.8903 29.6032 47.6429 31.5109 47.6429 33.5C47.6429 35.4891 46.8903 37.3968 45.5508 38.8033C44.2112 40.2098 42.3944 41 40.5 41C38.6056 41 36.7888 40.2098 35.4492 38.8033C34.1097 37.3968 33.3571 35.4891 33.3571 33.5ZM30.7511 53.1875H50.2489C49.7522 49.4785 46.7165 46.625 43.0502 46.625H37.9498C34.2835 46.625 31.2478 49.4785 30.7511 53.1875ZM28 54.2598C28 48.4883 32.4531 43.8125 37.9498 43.8125H43.0502C48.5469 43.8125 53 48.4883 53 54.2598C53 55.2207 52.2578 56 51.3426 56H29.6574C28.7422 56 28 55.2207 28 54.2598Z" fill="white"/>
</svg>
