<svg width="55" height="54" viewBox="0 0 55 54" fill="none" xmlns="http://www.w3.org/2000/svg">
<circle cx="27.2818" cy="26.9576" r="26.9264" fill="#D9D9D9"/>
<path d="M31.082 28.5479C31.082 30.6432 29.3775 32.3477 27.2822 32.3477C25.187 32.3477 23.4831 30.6432 23.4831 28.5479C23.4831 26.4527 25.187 24.7482 27.2822 24.7482C29.3775 24.7482 31.082 26.4533 31.082 28.5479ZM39.0625 23.1525V33.9447C39.0625 35.3835 37.896 36.55 36.4573 36.55H18.1072C16.6685 36.55 15.502 35.3835 15.502 33.9447V23.1525C15.502 21.7137 16.6685 20.5472 18.1072 20.5472H21.3117V19.6458C21.3117 18.3868 22.3316 17.3662 23.5913 17.3662H30.9732C32.2329 17.3662 33.2528 18.3868 33.2528 19.6458V20.5466H36.4573C37.896 20.5472 39.0625 21.7137 39.0625 23.1525ZM33.0359 28.5479C33.0359 25.3754 30.4548 22.7942 27.2822 22.7942C24.1103 22.7942 21.5292 25.3754 21.5292 28.5479C21.5292 31.7205 24.1103 34.3016 27.2822 34.3016C30.4548 34.3016 33.0359 31.7205 33.0359 28.5479Z" fill="#28382B"/>
</svg>
